General
Complete name                    : D:\\Videos\\Shows Rip\\Arch Enemy - Tyrants of the Rising Sun (2008) DvdRip.avi
Format                           : AVI
Format/Info                      : Audio Video Interleave
Format profile                   : OpenDML
File size                        : 1.89 GiB
Duration                         : 1h 34mn
Overall bit rate                 : 2 844 Kbps
Writing application              : MEncoder SVN-r30881(20100311-gcc4.3.3)
Writing library                  : MPlayer

Video
ID                               : 0
Format                           : MPEG-4 Visual
Format profile                   : Advanced Simple@L5
Format settings, BVOP            : Yes
Format settings, QPel            : No
Format settings, GMC             : No warppoints
Format settings, Matrix          : Default (H.263)
Codec ID                         : XVID
Codec ID/Hint                    : XviD
Duration                         : 1h 34mn
Bit rate                         : 2 392 Kbps
Width                            : 720 pixels
Height                           : 480 pixels
Display aspect ratio             : 3:2
Frame rate                       : 24.000 fps
Standard                         : NTSC
Color space                      : YUV
Chroma subsampling               : 4:2:0
Bit depth                        : 8 bits
Scan type                        : Progressive
Compression mode                 : Lossy
Bits/(Pixel*Frame)               : 0.288
Stream size                      : 1.59 GiB (84%)
Writing library                  : XviD 1.2.1 (UTC 2008-12-04)

Audio
ID                               : 1
Format                           : AC-3
Format/Info                      : Audio Coding 3
Mode extension                   : CM (complete main)
Codec ID                         : 2000
Duration                         : 1h 34mn
Bit rate mode                    : Constant
Bit rate                         : 448 Kbps
Channel(s)                       : 6 channels
Channel positions                : Front: L C R, Side: L R, LFE
Sampling rate                    : 48.0 KHz
Bit depth                        : 16 bits
Compression mode                 : Lossy
Video delay                      : 42ms
Stream size                      : 303 MiB (16%)
Alignment                        : Split accross interleaves
Interleave, duration             : 501 ms (12.03 video frames)
Interleave, preload duration     : 500 ms



Tyrants Of The Rising Sun - Live In Japan DVD - Tracklisting:

I. Main Live Show (approx. 95 min)

01. Intro / Blood On Your Hands
02. Ravenous
03. Taking Back My Soul
04. Dead Eyes See No Future
05. Dark Insanity
06. The Day You Died
07. Christopher Solo
08. Silverwing
09. Night Falls Fast
10. Daniel Solo
11. Burning Angel
12. Michael Solo (Incl. \'Intermezzo Liberte’)
13. Dead Bury Their Dead
14. Vultures
15. Enemy Within
16. Snowbound
17. Shadows And Dust
18. Nemesis
19. We Will Rise
20. Fields Of Desolation